<?xml version="1.0"?>
<svg xmlns="http://www.w3.org/2000/svg" id="bf37ae75-5681-4267-bf19-b0e613463e2d" data-name="Layer 1" width="3600" height="570" viewBox="0 0 3600 570">
  <defs>
    <style>
      .f11008ad-2ab2-4085-b628-b7c9f73644dd {
        fill: #fff;
      }

      .e5ab09e5-07cf-4b67-bedf-591206852ca9 {
        fill: #ffa366;
      }
    </style>
  </defs>
  <title>Logo-Quero-Bolsa-Graduac&#x327;a&#x303;o-RGB-Colorido</title>
  <g>
    <g>
      <path class="f11008ad-2ab2-4085-b628-b7c9f73644dd" d="M1122.75214,122.2815q37.76466,0,69.01228,13.07723,31.22516,13.07362,53.393,35.59651a156.12816,156.12816,0,0,1,34.14209,53.028,177.1799,177.1799,0,0,1,11.986,65.37892,200.55167,200.55167,0,0,1-2.17894,29.786q-2.17894,14.54064-4.35788,23.97191H1031.94688q9.43308,34.8684,36.32282,53.028,26.86728,18.1704,66.10524,18.16141,29.04621,0,53.393-9.80522a210.65009,210.65009,0,0,0,46.85615-26.514l39.95439,66.83155a243.3994,243.3994,0,0,1-66.107,39.59123q-35.5992,14.16309-77.00172,14.1631-42.87222,0-79.18246-14.52626-36.33272-14.52446-62.47367-39.95438A185.562,185.562,0,0,1,948.7697,384.5271q-14.89659-34.13489-14.8912-74.09827,0-39.94359,14.52805-74.09467a184.54923,184.54923,0,0,1,99.886-99.52281Q1082.78608,122.2869,1122.75214,122.2815Zm-3.63156,79.18246q-31.97484,0-55.21055,19.25088-23.25639,19.25448-31.96315,53.39477h164.90173q-1.4643-34.8738-23.97191-53.75792Q1150.35113,201.46936,1119.12058,201.464Z"/>
      <path class="f11008ad-2ab2-4085-b628-b7c9f73644dd" d="M794.64444,130.27444s-.00269,187.84384-.00269,209.27085-6.5476,38.093-19.61134,50.42906q-19.61314,18.52636-47.94563,18.52457-29.06238,0-48.67013-18.52457-19.61585-18.521-19.614-50.48592l-.0018-209.214H561.45674V357.37275c0,70.99706,48.671,141.99435,138.77156,141.99435,56.86812,0,94.41614-51.06009,94.41614-51.06009v41.5533h97.34208V130.27444Z"/>
      <path class="f11008ad-2ab2-4085-b628-b7c9f73644dd" d="M1527.381,125.91307q18.14883,0,31.23684,4.36147v86.44558H1532.467q-42.14142,0-69.01229,22.51929-26.88345,22.52288-26.879,71.18942V489.86041h-98.06838V130.27454h90.07715v42.85963a119.43747,119.43747,0,0,1,43.58774-35.23335A127.80579,127.80579,0,0,1,1527.381,125.91307Z"/>
      <path class="f11008ad-2ab2-4085-b628-b7c9f73644dd" d="M1760.608,122.2815A197.07059,197.07059,0,0,1,1897.18,176.40258a186.45812,186.45812,0,0,1,41.407,59.20527q15.25527,34.15107,15.25437,74.09467,0,39.95978-15.25437,74.46143a185.28925,185.28925,0,0,1-41.407,59.56842,198.72775,198.72775,0,0,1-273.14209,0A180.49416,180.49416,0,0,1,1582.994,384.164q-14.8966-34.49625-14.89121-74.46143,0-39.94359,14.89121-74.09467a181.55708,181.55708,0,0,1,41.04385-59.20527,196.60945,196.60945,0,0,1,61.02105-39.59123Q1719.92731,122.2869,1760.608,122.2815Zm0,89.35443q-41.40522,0-67.19471,27.96664-25.794,27.97021-25.78949,70.82626,0,42.87222,25.78949,70.10356,25.77782,27.24211,67.19471,27.24031a92.65021,92.65021,0,0,0,36.686-7.26312,86.69223,86.69223,0,0,0,29.42105-20.34035,98.94731,98.94731,0,0,0,19.614-30.87548,102.00568,102.00568,0,0,0,7.26313-38.86492,104.85671,104.85671,0,0,0-7.26313-39.22807,98.06953,98.06953,0,0,0-19.614-31.235,91.2314,91.2314,0,0,0-29.42105-20.7035A88.92133,88.92133,0,0,0,1760.608,211.63593Z"/>
      <path class="f11008ad-2ab2-4085-b628-b7c9f73644dd" d="M531.87689,510.19718l-74.59267-97.24859a253.15825,253.15825,0,0,0,37.69635-61.07318q19.99068-45.39094,19.97719-98.43334,0-53.01723-19.97719-98.42975A246.9096,246.9096,0,0,0,440.49813,76.193a251.8256,251.8256,0,0,0-80.63508-52.3053Q313.74129,5.00539,260.70519,5h-1.45262q-53.0361,0-99.15786,18.88772A251.8256,251.8256,0,0,0,79.45963,76.193a246.9096,246.9096,0,0,0-54.48244,78.8193Q4.98653,200.41945,5,253.44207q0,53.0388,19.97719,98.43334a249.53667,249.53667,0,0,0,54.11928,78.8193,241.46829,241.46829,0,0,0,57.20431,41.43218l51.60955-77.25521a147.1217,147.1217,0,0,1-38.7121-27.74011,141.77253,141.77253,0,0,1-31.96315-49.76321q-11.27223-29.04351-11.26144-63.92629,0-34.8684,11.26144-63.56315a145.21266,145.21266,0,0,1,80.63328-82.45086q27.95675-11.612,62.11052-11.621,34.15377,0,62.11052,11.621a145.21266,145.21266,0,0,1,80.63328,82.45086q11.27223,28.70913,11.26144,63.56315,0,34.87379-11.26144,63.92629a141.77253,141.77253,0,0,1-31.96315,49.76321,147.12273,147.12273,0,0,1-38.70671,27.73651L461.76974,563.99465Z"/>
      <circle class="e5ab09e5-07cf-4b67-bedf-591206852ca9" cx="258.98287" cy="451.41954" r="54.3467"/>
    </g>
    <g>
      <path class="f11008ad-2ab2-4085-b628-b7c9f73644dd" d="M2167.44662,499.19128c-50.96425,0-115.60095-9.32221-141.70432-19.88791V23.73482H2198.522c95.09129,0,142.32706,47.23477,142.32706,114.35844,0,40.39757-24.23913,77.68839-57.80047,93.22705,55.93523,13.05169,100.685,56.557,100.685,119.32944C2383.73357,440.14831,2312.88042,499.19128,2167.44662,499.19128Zm40.39855-282.16614c52.20675,0,78.93187-32.94059,78.93187-72.7174,0-39.15506-24.23913-70.85216-88.87582-70.85216H2078.57079V217.02514ZM2172.4186,449.47052c116.22269,0,156.62124-42.88454,156.62124-99.44153,0-47.85652-37.29082-87.01158-105.657-87.01158H2078.57079V438.28307C2099.70219,445.12028,2140.7215,449.47052,2172.4186,449.47052Z"/>
      <path class="f11008ad-2ab2-4085-b628-b7c9f73644dd" d="M2426.93147,320.81788c0-100.685,76.44588-178.37438,178.37438-178.37438,104.4135,0,179.61689,77.68937,179.61689,178.37438,0,101.92752-75.82414,178.3734-179.61689,178.3734C2503.37735,499.19128,2426.93147,422.7454,2426.93147,320.81788Zm307.027,0c0-75.82513-53.45025-132.38211-128.65264-132.38211-72.71739,0-127.41013,56.557-127.41013,132.38211,0,76.44589,54.071,132.38212,127.41013,132.38212C2680.50824,453.2,2733.95849,397.26377,2733.95849,320.81788Z"/>
      <path class="f11008ad-2ab2-4085-b628-b7c9f73644dd" d="M2852.10988,5.08941h52.82849V489.86907h-52.82849Z"/>
      <path class="f11008ad-2ab2-4085-b628-b7c9f73644dd" d="M2976.15842,474.33139V426.47487C2995.42558,440.77005,3032.09465,453.2,3070.628,453.2c57.17972,0,84.52559-26.10338,84.52559-55.93623,0-27.96861-18.64541-44.127-55.31448-58.42222l-42.88454-17.40192c-46.613-18.64541-75.2024-42.88454-75.2024-86.39083,0-51.585,49.72077-92.6053,127.41014-92.6053,27.96762,0,59.043,8.07971,74.58164,17.40192v47.85651c-18.64541-11.18645-44.74978-19.26616-74.58164-19.26616-45.37053,0-75.20338,18.64541-75.20338,46.613,0,23.61739,15.53767,34.80483,45.99227,46.614l41.64105,16.78017c55.31449,22.37489,83.2831,49.72077,83.2831,97.57729,0,52.82849-44.74978,103.171-133.62561,103.171C3030.22942,499.19128,2994.80383,488.00483,2976.15842,474.33139Z"/>
      <path class="f11008ad-2ab2-4085-b628-b7c9f73644dd" d="M3549.00872,426.47487c-27.96861,46.613-75.82513,72.71641-133.00386,72.71641-96.33478,0-167.80869-76.44588-167.80869-178.3734,0-100.685,72.09565-178.37438,168.42944-178.37438,54.072,0,99.44252,24.23913,128.03188,66.50192V151.145H3595V489.86907h-45.99128Zm1.86424-106.27873c0-75.20339-54.072-131.76037-127.41014-131.76037-72.09565,0-124.3024,56.557-124.3024,132.38211,0,76.44589,52.20675,132.38212,124.3024,132.38212C3496.801,453.2,3550.873,396.642,3550.873,320.19614Z"/>
    </g>
  </g>
</svg>
