<svg width="990" height="653" viewBox="0 0 990 653" fill="none" xmlns="http://www.w3.org/2000/svg">
<path d="M582.226 206.368C582.226 207.392 582.396 208.32 582.738 209.152C583.079 209.963 583.527 210.645 584.082 211.2C584.7 211.84 585.426 212.341 586.258 212.704C587.111 213.067 588.007 213.248 588.946 213.248C590.076 213.248 591.1 213.045 592.018 212.64C592.935 212.235 593.82 211.659 594.674 210.912L596.722 213.184C595.591 214.293 594.418 215.104 593.202 215.616C591.986 216.107 590.567 216.352 588.946 216.352C587.474 216.352 586.13 216.107 584.914 215.616C583.698 215.104 582.631 214.4 581.714 213.504C580.775 212.587 580.05 211.531 579.538 210.336C579.047 209.12 578.802 207.797 578.802 206.368C578.802 204.96 579.047 203.659 579.538 202.464C580.05 201.269 580.754 200.213 581.65 199.296C582.546 198.4 583.612 197.707 584.85 197.216C586.087 196.704 587.452 196.448 588.946 196.448C590.567 196.448 591.986 196.704 593.202 197.216C594.418 197.728 595.591 198.507 596.722 199.552L594.674 201.856C593.82 201.088 592.935 200.512 592.018 200.128C591.1 199.723 590.076 199.52 588.946 199.52C588.007 199.52 587.132 199.691 586.322 200.032C585.511 200.352 584.796 200.821 584.178 201.44C583.58 202.037 583.1 202.763 582.738 203.616C582.396 204.469 582.226 205.387 582.226 206.368ZM611.927 196.8L620.439 216H616.759L615.159 212.48H604.919L603.351 216H599.735L608.247 196.8H611.927ZM606.231 209.376H613.879L610.199 200.256H609.815L606.231 209.376ZM627.84 196.8L634.624 206.304L641.248 196.8H644.928V216H641.536V201.92H641.408L635.104 210.848H633.856L627.488 201.92H627.36V216H624.128V196.8H627.84ZM649.408 216V196.8H659.328C660.16 196.8 660.949 196.939 661.696 197.216C662.464 197.493 663.125 197.909 663.68 198.464C664.106 198.891 664.426 199.392 664.64 199.968C664.874 200.523 664.992 201.152 664.992 201.856C664.992 202.219 664.949 202.581 664.864 202.944C664.8 203.285 664.682 203.616 664.512 203.936C664.192 204.448 663.754 204.885 663.2 205.248V205.408C663.968 205.749 664.608 206.261 665.12 206.944C665.76 207.84 666.08 208.896 666.08 210.112C666.08 210.944 665.92 211.712 665.6 212.416C665.301 213.12 664.874 213.728 664.32 214.24C663.722 214.795 663.029 215.232 662.24 215.552C661.472 215.851 660.629 216 659.712 216H649.408ZM662.752 210.08C662.752 209.291 662.549 208.661 662.144 208.192C661.866 207.893 661.525 207.659 661.12 207.488C660.736 207.296 660.33 207.2 659.904 207.2H652.8V213.024H659.744C660.17 213.024 660.576 212.939 660.96 212.768C661.365 212.597 661.717 212.373 662.016 212.096C662.25 211.861 662.432 211.573 662.56 211.232C662.688 210.869 662.752 210.485 662.752 210.08ZM661.632 202.016C661.632 201.333 661.418 200.8 660.992 200.416C660.522 199.989 659.904 199.776 659.136 199.776H652.8V204.224H659.648C659.946 204.224 660.213 204.16 660.448 204.032C660.704 203.904 660.917 203.744 661.088 203.552C661.45 203.125 661.632 202.613 661.632 202.016ZM686.425 207.936C686.425 209.152 686.201 210.283 685.753 211.328C685.305 212.373 684.676 213.291 683.865 214.08C683.118 214.784 682.254 215.339 681.273 215.744C680.313 216.128 679.236 216.32 678.041 216.32C676.761 216.32 675.62 216.107 674.617 215.68C673.614 215.253 672.75 214.677 672.025 213.952C671.257 213.184 670.66 212.288 670.233 211.264C669.806 210.24 669.593 209.131 669.593 207.936V196.8H673.049V208.128C673.049 208.875 673.177 209.557 673.433 210.176C673.71 210.773 674.062 211.285 674.489 211.712C675.428 212.715 676.612 213.216 678.041 213.216C678.745 213.216 679.396 213.077 679.993 212.8C680.612 212.523 681.145 212.16 681.593 211.712C682.02 211.285 682.35 210.773 682.585 210.176C682.841 209.557 682.969 208.875 682.969 208.128V196.8H686.425V207.936ZM707.609 203.84C707.609 205.483 707.15 206.891 706.233 208.064C705.892 208.491 705.508 208.875 705.081 209.216C704.654 209.557 704.164 209.845 703.609 210.08C704.185 211.019 704.782 212 705.401 213.024C706.041 214.048 706.649 215.04 707.225 216H703.321L700.217 210.784H694.329V216H690.873V196.8H700.345C701.348 196.8 702.286 196.981 703.161 197.344C704.057 197.685 704.846 198.187 705.529 198.848C706.169 199.488 706.67 200.224 707.033 201.056C707.417 201.888 707.609 202.816 707.609 203.84ZM694.329 207.68H700.409C700.964 207.68 701.476 207.584 701.945 207.392C702.436 207.179 702.83 206.891 703.129 206.528C703.47 206.165 703.726 205.749 703.897 205.28C704.068 204.811 704.153 204.331 704.153 203.84C704.153 202.795 703.833 201.931 703.193 201.248C702.873 200.843 702.446 200.523 701.913 200.288C701.401 200.053 700.846 199.936 700.249 199.936H694.329V207.68ZM717.89 216V211.424L709.602 196.8H713.538L719.458 207.808H719.746L725.73 196.8H729.474L721.282 211.424V216H717.89Z" fill="white"/>
<path d="M330.4 208.936C330.4 210.152 330.176 211.283 329.728 212.328C329.28 213.373 328.651 214.291 327.84 215.08C327.093 215.784 326.229 216.339 325.248 216.744C324.288 217.128 323.211 217.32 322.016 217.32C320.736 217.32 319.595 217.107 318.592 216.68C317.589 216.253 316.725 215.677 316 214.952C315.232 214.184 314.635 213.288 314.208 212.264C313.781 211.24 313.568 210.131 313.568 208.936V197.8H317.024V209.128C317.024 209.875 317.152 210.557 317.408 211.176C317.685 211.773 318.037 212.285 318.464 212.712C319.403 213.715 320.587 214.216 322.016 214.216C322.72 214.216 323.371 214.077 323.968 213.8C324.587 213.523 325.12 213.16 325.568 212.712C325.995 212.285 326.325 211.773 326.56 211.176C326.816 210.557 326.944 209.875 326.944 209.128V197.8H330.4V208.936ZM353.824 197.8V217H350.656L339.36 203.208V217H336V197.8H339.168L350.528 211.624V197.8H353.824ZM362.791 217H359.431V197.8H362.791V217ZM375.306 217L367.562 197.8H371.274L377.514 213.672H377.77L383.978 197.8H387.562L379.818 217H375.306ZM392.387 197.8H407.299V200.936H395.843V205.384H406.083V208.488H395.843V213.896H407.747V217H392.387V197.8ZM429.742 204.84C429.742 206.483 429.283 207.891 428.366 209.064C428.024 209.491 427.64 209.875 427.214 210.216C426.787 210.557 426.296 210.845 425.742 211.08C426.318 212.019 426.915 213 427.534 214.024C428.174 215.048 428.782 216.04 429.358 217H425.454L422.35 211.784H416.462V217H413.006V197.8H422.478C423.48 197.8 424.419 197.981 425.294 198.344C426.19 198.685 426.979 199.187 427.662 199.848C428.302 200.488 428.803 201.224 429.166 202.056C429.55 202.888 429.742 203.816 429.742 204.84ZM416.462 208.68H422.542C423.096 208.68 423.608 208.584 424.078 208.392C424.568 208.179 424.963 207.891 425.262 207.528C425.603 207.165 425.859 206.749 426.03 206.28C426.2 205.811 426.286 205.331 426.286 204.84C426.286 203.795 425.966 202.931 425.326 202.248C425.006 201.843 424.579 201.523 424.046 201.288C423.534 201.053 422.979 200.936 422.382 200.936H416.462V208.68ZM434.336 202.984C434.336 202.088 434.517 201.32 434.88 200.68C435.242 200.019 435.722 199.475 436.32 199.048C437.045 198.493 437.93 198.088 438.976 197.832C440.021 197.576 441.152 197.448 442.368 197.448C443.584 197.448 444.81 197.587 446.048 197.864C447.306 198.141 448.65 198.643 450.08 199.368L448.8 202.088C447.712 201.555 446.656 201.171 445.632 200.936C444.608 200.68 443.584 200.552 442.56 200.552C441.77 200.552 441.013 200.605 440.288 200.712C439.584 200.819 438.997 201.043 438.528 201.384C437.952 201.789 437.664 202.333 437.664 203.016C437.664 203.293 437.728 203.528 437.856 203.72C437.984 203.891 438.165 204.051 438.4 204.2C438.677 204.413 439.008 204.573 439.392 204.68C439.776 204.765 440.138 204.84 440.48 204.904L444.384 205.608C445.344 205.779 446.282 206.035 447.2 206.376C448.138 206.717 448.928 207.197 449.568 207.816C449.994 208.243 450.325 208.744 450.56 209.32C450.794 209.875 450.912 210.547 450.912 211.336C450.912 212.36 450.709 213.235 450.304 213.96C449.898 214.685 449.365 215.272 448.704 215.72C447.85 216.317 446.816 216.744 445.6 217C444.384 217.235 443.136 217.352 441.856 217.352C441.045 217.352 440.309 217.32 439.648 217.256C438.986 217.192 438.346 217.096 437.728 216.968C437.109 216.819 436.501 216.637 435.904 216.424C435.306 216.189 434.677 215.923 434.016 215.624L435.072 212.808C437.418 213.747 439.658 214.216 441.792 214.216C442.944 214.216 443.914 214.141 444.704 213.992C445.493 213.843 446.176 213.555 446.752 213.128C447.264 212.723 447.52 212.157 447.52 211.432C447.52 211.069 447.445 210.76 447.296 210.504C447.168 210.248 446.986 210.024 446.752 209.832C446.41 209.597 445.994 209.405 445.504 209.256C445.013 209.085 444.49 208.947 443.936 208.84L439.68 208.104C438.805 207.955 438.005 207.741 437.28 207.464C436.576 207.165 435.978 206.771 435.488 206.28C435.125 205.896 434.837 205.437 434.624 204.904C434.432 204.371 434.336 203.731 434.336 202.984ZM459.229 217H455.869V197.8H459.229V217ZM463.999 197.8H481.631V200.872H474.495V217H471.135V200.872H463.999V197.8ZM495.092 197.8L503.604 217H499.924L498.324 213.48H488.084L486.516 217H482.9L491.412 197.8H495.092ZM489.396 210.376H497.044L493.364 201.256H492.98L489.396 210.376ZM494.868 189.512L497.588 190.856L494.516 196.52L492.276 195.432L494.868 189.512ZM525.117 204.84C525.117 206.483 524.658 207.891 523.741 209.064C523.399 209.491 523.015 209.875 522.589 210.216C522.162 210.557 521.671 210.845 521.117 211.08C521.693 212.019 522.29 213 522.909 214.024C523.549 215.048 524.157 216.04 524.733 217H520.829L517.725 211.784H511.837V217H508.381V197.8H517.853C518.855 197.8 519.794 197.981 520.669 198.344C521.565 198.685 522.354 199.187 523.037 199.848C523.677 200.488 524.178 201.224 524.541 202.056C524.925 202.888 525.117 203.816 525.117 204.84ZM511.837 208.68H517.917C518.471 208.68 518.983 208.584 519.453 208.392C519.943 208.179 520.338 207.891 520.637 207.528C520.978 207.165 521.234 206.749 521.405 206.28C521.575 205.811 521.661 205.331 521.661 204.84C521.661 203.795 521.341 202.931 520.701 202.248C520.381 201.843 519.954 201.523 519.421 201.288C518.909 201.053 518.354 200.936 517.757 200.936H511.837V208.68ZM533.422 217H530.062V197.8H533.422V217ZM548.497 197.448C549.99 197.448 551.345 197.693 552.561 198.184C553.798 198.675 554.865 199.368 555.761 200.264C556.678 201.203 557.382 202.28 557.873 203.496C558.364 204.712 558.609 206.013 558.609 207.4C558.609 208.787 558.374 210.077 557.905 211.272C557.436 212.445 556.764 213.48 555.889 214.376C554.972 215.315 553.894 216.051 552.657 216.584C551.42 217.096 550.033 217.352 548.497 217.352C546.961 217.352 545.553 217.064 544.273 216.488C542.993 215.891 541.905 215.112 541.009 214.152C540.198 213.277 539.548 212.253 539.057 211.08C538.588 209.907 538.353 208.68 538.353 207.4C538.353 206.056 538.588 204.797 539.057 203.624C539.526 202.451 540.188 201.416 541.041 200.52C541.937 199.56 543.014 198.813 544.273 198.28C545.553 197.725 546.961 197.448 548.497 197.448ZM541.777 207.4C541.777 208.36 541.937 209.245 542.257 210.056C542.598 210.867 543.046 211.571 543.601 212.168C544.198 212.829 544.913 213.352 545.745 213.736C546.598 214.099 547.516 214.28 548.497 214.28C549.457 214.28 550.353 214.099 551.185 213.736C552.038 213.373 552.774 212.861 553.393 212.2C553.948 211.603 554.385 210.899 554.705 210.088C555.025 209.277 555.185 208.381 555.185 207.4C555.185 206.397 555.014 205.491 554.673 204.68C554.353 203.848 553.916 203.144 553.361 202.568C552.742 201.928 552.006 201.427 551.153 201.064C550.321 200.701 549.436 200.52 548.497 200.52C547.537 200.52 546.63 200.701 545.777 201.064C544.945 201.427 544.22 201.939 543.601 202.6C543.046 203.197 542.598 203.901 542.257 204.712C541.937 205.523 541.777 206.419 541.777 207.4Z" fill="white"/>
<path d="M243.16 520H239.94V498.65H243.16V520ZM267.302 520H264.362L252.252 504.145V520H249.032V498.65H251.972L264.082 514.575V498.65H267.302V520ZM281.71 498.3C288.15 498.3 291.895 502.255 291.895 509.36C291.895 516.36 288.15 520.315 281.71 520.315C275.305 520.315 271.56 516.36 271.56 509.36C271.56 502.255 275.305 498.3 281.71 498.3ZM281.71 517.305C286.12 517.305 288.605 514.575 288.605 509.36C288.605 504.075 286.12 501.31 281.71 501.31C277.335 501.31 274.85 504.075 274.85 509.36C274.85 514.575 277.335 517.305 281.71 517.305ZM304.981 520H301.271L292.486 498.65H296.091L302.321 514.155C302.636 514.995 302.916 515.905 303.126 516.78C303.371 515.905 303.651 514.995 303.931 514.155L310.301 498.65H313.801L304.981 520ZM317.362 514.96L315.297 520H311.832L320.722 498.65H325.027L333.917 520H330.452L328.387 514.96H317.362ZM327.162 511.985L323.662 503.48C323.277 502.43 323.032 501.59 322.857 500.925C322.682 501.59 322.437 502.43 322.052 503.48L318.552 511.985H327.162ZM344.728 520.315L344.658 521.12C347.388 521.12 348.263 521.82 348.263 524.095C348.263 526.265 346.933 527.35 344.693 527.35C343.468 527.35 342.208 527.07 341.123 526.72L341.508 524.9C342.488 525.11 343.328 525.215 343.993 525.215C345.218 525.215 346.128 525.11 346.093 524.06C346.093 522.94 345.568 522.905 343.748 522.905H342.243L342.803 520.14C337.868 519.3 334.998 515.52 334.998 509.36C334.998 502.255 338.743 498.3 345.358 498.3C347.983 498.3 350.923 498.965 352.988 500.155L351.938 502.605C349.908 501.73 347.563 501.31 345.498 501.31C340.773 501.31 338.288 504.075 338.288 509.36C338.288 514.365 340.843 517.305 345.183 517.305C348.123 517.305 350.363 516.64 352.603 515.24L353.828 517.725C351.448 519.44 348.543 520.315 345.008 520.315H344.728ZM370.561 492.455L372.206 492.84C371.646 496.095 369.091 496.9 367.166 495.92L365.241 494.94C363.981 494.31 363.281 494.695 362.791 496.025L361.181 495.64C361.776 492.49 364.121 491.755 366.151 492.735L368.076 493.645C369.371 494.275 370.071 493.855 370.561 492.455ZM361.146 514.96L359.081 520H355.616L364.506 498.65H368.811L377.701 520H374.236L372.171 514.96H361.146ZM370.946 511.985L367.446 503.48C367.061 502.43 366.816 501.59 366.641 500.925C366.466 501.59 366.221 502.43 365.836 503.48L362.336 511.985H370.946ZM388.932 498.3C395.372 498.3 399.117 502.255 399.117 509.36C399.117 516.36 395.372 520.315 388.932 520.315C382.527 520.315 378.782 516.36 378.782 509.36C378.782 502.255 382.527 498.3 388.932 498.3ZM388.932 517.305C393.342 517.305 395.827 514.575 395.827 509.36C395.827 504.075 393.342 501.31 388.932 501.31C384.557 501.31 382.072 504.075 382.072 509.36C382.072 514.575 384.557 517.305 388.932 517.305ZM433.811 520H419.076V498.65H433.496V501.66H422.296V507.785H432.061V510.795H422.296V516.99H433.811V520ZM468.947 520H454.212V498.65H468.632V501.66H457.432V507.785H467.197V510.795H457.432V516.99H468.947V520ZM493.41 520L492.955 505.685V504.53L486.235 520H483.68L476.995 504.53V505.615L476.505 520H473.25L474.02 498.65H477.905L484.485 514.015C484.695 514.47 484.835 514.96 484.94 515.31C485.045 514.96 485.22 514.47 485.43 514.015L492.01 498.65H495.93L496.7 520H493.41ZM502.508 498.65H509.893C515.493 498.65 518.643 501.38 518.643 506.28C518.643 511.145 515.528 513.875 510.033 513.875H505.728V520H502.508V498.65ZM505.728 510.865H509.998C513.533 510.865 515.528 509.22 515.493 506.28C515.493 503.34 513.463 501.66 509.893 501.66H505.728V510.865ZM539.483 519.755V520H535.948L530.523 513.28H525.553V520H522.333V498.65H530.208C535.843 498.65 538.993 501.31 538.993 506.035C538.993 509.395 536.998 511.88 533.778 512.86L539.483 519.755ZM525.553 510.27H530.278C533.743 510.27 535.703 508.73 535.703 506.035C535.703 503.27 533.743 501.695 530.278 501.66H525.553V510.27ZM557.849 520H543.114V498.65H557.534V501.66H546.334V507.785H556.099V510.795H546.334V516.99H557.849V520ZM580.494 508.905V517.41C577.239 519.44 574.194 520.315 570.554 520.315C564.499 520.315 560.754 516.36 560.754 509.36C560.754 502.5 564.604 498.3 571.009 498.3C573.809 498.3 576.959 498.86 579.479 499.875L578.569 502.535C576.224 501.73 573.739 501.31 571.289 501.31C566.669 501.31 564.044 504.215 564.044 509.325C564.044 514.54 566.529 517.305 570.694 517.305C573.249 517.305 575.419 516.955 577.414 515.66V511.845H570.239V508.905H580.494ZM588.133 514.96L586.068 520H582.603L591.493 498.65H595.798L604.688 520H601.223L599.158 514.96H588.133ZM597.933 511.985L594.433 503.48C594.048 502.43 593.803 501.59 593.628 500.925C593.453 501.59 593.208 502.43 592.823 503.48L589.323 511.985H597.933ZM607.782 498.65H614.957C620.417 498.65 622.972 500.54 622.972 504.53C622.972 506.7 621.747 508.17 619.542 508.835C622.762 509.57 624.372 511.46 624.372 514.05C624.372 518.11 621.502 520 615.377 520H607.782V498.65ZM611.002 501.66V507.505H616.182C618.562 507.505 619.927 506.525 619.927 504.775C619.927 502.64 618.352 501.66 614.957 501.66H611.002ZM611.002 510.48V516.955H615.447C619.262 516.955 621.047 515.975 621.047 513.875C621.047 511.705 619.297 510.48 616.182 510.48H611.002ZM631.578 520H628.358V498.65H631.578V520ZM651.135 520H637.45V498.65H640.67V516.92H651.135V520ZM657.725 520H654.505V498.65H657.725V520ZM663.597 498.65H670.317C677.737 498.65 681.902 502.43 681.902 509.15C681.902 516.08 677.737 520 670.317 520H663.597V498.65ZM666.817 516.99H670.317C675.637 516.99 678.612 514.155 678.612 509.15C678.612 504.355 675.637 501.66 670.317 501.66H666.817V516.99ZM688.075 514.96L686.01 520H682.545L691.435 498.65H695.74L704.63 520H701.165L699.1 514.96H688.075ZM697.875 511.985L694.375 503.48C693.99 502.43 693.745 501.59 693.57 500.925C693.395 501.59 693.15 502.43 692.765 503.48L689.265 511.985H697.875ZM707.723 498.65H714.443C721.863 498.65 726.028 502.43 726.028 509.15C726.028 516.08 721.863 520 714.443 520H707.723V498.65ZM710.943 516.99H714.443C719.763 516.99 722.738 514.155 722.738 509.15C722.738 504.355 719.763 501.66 714.443 501.66H710.943V516.99ZM744.846 520H730.111V498.65H744.531V501.66H733.331V507.785H743.096V510.795H733.331V516.99H744.846V520Z" fill="white"/>
<path d="M174.352 206.368C174.352 207.392 174.523 208.32 174.864 209.152C175.205 209.963 175.653 210.645 176.208 211.2C176.827 211.84 177.552 212.341 178.384 212.704C179.237 213.067 180.133 213.248 181.072 213.248C182.203 213.248 183.227 213.045 184.144 212.64C185.061 212.235 185.947 211.659 186.8 210.912L188.848 213.184C187.717 214.293 186.544 215.104 185.328 215.616C184.112 216.107 182.693 216.352 181.072 216.352C179.6 216.352 178.256 216.107 177.04 215.616C175.824 215.104 174.757 214.4 173.84 213.504C172.901 212.587 172.176 211.531 171.664 210.336C171.173 209.12 170.928 207.797 170.928 206.368C170.928 204.96 171.173 203.659 171.664 202.464C172.176 201.269 172.88 200.213 173.776 199.296C174.672 198.4 175.739 197.707 176.976 197.216C178.213 196.704 179.579 196.448 181.072 196.448C182.693 196.448 184.112 196.704 185.328 197.216C186.544 197.728 187.717 198.507 188.848 199.552L186.8 201.856C185.947 201.088 185.061 200.512 184.144 200.128C183.227 199.723 182.203 199.52 181.072 199.52C180.133 199.52 179.259 199.691 178.448 200.032C177.637 200.352 176.923 200.821 176.304 201.44C175.707 202.037 175.227 202.763 174.864 203.616C174.523 204.469 174.352 205.387 174.352 206.368ZM192.501 196.8H207.413V199.936H195.957V204.384H206.197V207.488H195.957V212.896H207.861V216H192.501V196.8ZM229.695 196.8V216H226.527L215.231 202.208V216H211.871V196.8H215.039L226.399 210.624V196.8H229.695ZM233.191 196.8H250.823V199.872H243.687V216H240.327V199.872H233.191V196.8ZM271.034 203.84C271.034 205.483 270.575 206.891 269.658 208.064C269.317 208.491 268.933 208.875 268.506 209.216C268.079 209.557 267.589 209.845 267.034 210.08C267.61 211.019 268.207 212 268.826 213.024C269.466 214.048 270.074 215.04 270.65 216H266.746L263.642 210.784H257.754V216H254.298V196.8H263.77C264.773 196.8 265.711 196.981 266.586 197.344C267.482 197.685 268.271 198.187 268.954 198.848C269.594 199.488 270.095 200.224 270.458 201.056C270.842 201.888 271.034 202.816 271.034 203.84ZM257.754 207.68H263.834C264.389 207.68 264.901 207.584 265.37 207.392C265.861 207.179 266.255 206.891 266.554 206.528C266.895 206.165 267.151 205.749 267.322 205.28C267.493 204.811 267.578 204.331 267.578 203.84C267.578 202.795 267.258 201.931 266.618 201.248C266.298 200.843 265.871 200.523 265.338 200.288C264.826 200.053 264.271 199.936 263.674 199.936H257.754V207.68ZM284.172 196.448C285.665 196.448 287.02 196.693 288.236 197.184C289.473 197.675 290.54 198.368 291.436 199.264C292.353 200.203 293.057 201.28 293.548 202.496C294.039 203.712 294.284 205.013 294.284 206.4C294.284 207.787 294.049 209.077 293.58 210.272C293.111 211.445 292.439 212.48 291.564 213.376C290.647 214.315 289.569 215.051 288.332 215.584C287.095 216.096 285.708 216.352 284.172 216.352C282.636 216.352 281.228 216.064 279.948 215.488C278.668 214.891 277.58 214.112 276.684 213.152C275.873 212.277 275.223 211.253 274.732 210.08C274.263 208.907 274.028 207.68 274.028 206.4C274.028 205.056 274.263 203.797 274.732 202.624C275.201 201.451 275.863 200.416 276.716 199.52C277.612 198.56 278.689 197.813 279.948 197.28C281.228 196.725 282.636 196.448 284.172 196.448ZM277.452 206.4C277.452 207.36 277.612 208.245 277.932 209.056C278.273 209.867 278.721 210.571 279.276 211.168C279.873 211.829 280.588 212.352 281.42 212.736C282.273 213.099 283.191 213.28 284.172 213.28C285.132 213.28 286.028 213.099 286.86 212.736C287.713 212.373 288.449 211.861 289.068 211.2C289.623 210.603 290.06 209.899 290.38 209.088C290.7 208.277 290.86 207.381 290.86 206.4C290.86 205.397 290.689 204.491 290.348 203.68C290.028 202.848 289.591 202.144 289.036 201.568C288.417 200.928 287.681 200.427 286.828 200.064C285.996 199.701 285.111 199.52 284.172 199.52C283.212 199.52 282.305 199.701 281.452 200.064C280.62 200.427 279.895 200.939 279.276 201.6C278.721 202.197 278.273 202.901 277.932 203.712C277.612 204.523 277.452 205.419 277.452 206.4Z" fill="white"/>
<path fill-rule="evenodd" clip-rule="evenodd" d="M114.267 229C101.358 252.076 94 278.679 94 307V319C94 353.684 105.036 385.791 123.789 412H778V229H114.267ZM254 479C203.472 479 158.415 455.578 129.093 419H778V459C778 470.046 769.046 479 758 479H254ZM155.378 181H778V167C778 155.954 769.046 147 758 147H254C216.794 147 182.554 159.699 155.378 181ZM227.12 325.42V288.9H217V325.42C217 339.61 210.4 347.31 198.52 347.31C186.75 347.31 180.04 339.61 180.04 325.42V288.9H169.92V325.42C169.92 345.66 180.26 356.99 198.52 356.99C216.78 356.99 227.12 345.66 227.12 325.42ZM245.6 304.08V311.67C251.32 306.5 256.93 303.2 264.63 303.2C276.4 303.2 281.9 309.47 281.9 323.55V356H272V325.97C272 316.51 270.68 312.44 262.76 312.44C256.38 312.44 250.66 315.85 245.6 321.68V356H235.7V304.08H245.6ZM295.87 283.51C292.68 283.51 289.93 285.38 289.93 289.01C289.93 292.53 292.68 294.51 295.87 294.51C299.06 294.51 301.81 292.53 301.81 289.01C301.81 285.38 299.06 283.51 295.87 283.51ZM291.03 356H300.93V304.08H291.03V356ZM618.28 357.69V353.69C611.9 358.2 604.98 358.68 598.05 358.68C586.72 358.68 581 352.41 581 338.22V305H595.96V334.37C595.96 341.85 599.28 343.69 603.44 345.04C603.772 345.04 604.112 345.043 604.458 345.046C609.158 345.088 615.02 345.141 618.28 337.69V305H633.78V357.69H618.28ZM440.96 312.25L441.07 304.99H426V357.68H442.34V324.9C445.86 320.61 448.44 317.97 452.4 317.97C457.35 317.97 463.84 321.27 463.84 328.53V357.68H478.84C478.84 357.68 478.952 346.477 478.84 337.18C478.831 336.423 478.82 335.679 478.809 334.956C478.736 330.178 478.676 326.248 479.34 324.68C481.319 320.009 482.867 319.275 485.535 318.01L485.62 317.97C487.165 317.237 492.706 316.695 496.34 319.18C499.102 321.069 500.34 325.442 500.34 328.53V357.68H515.84L514.84 323.68C514.84 309.49 501.57 304.11 490.68 304.11C484.74 304.11 480.55 305.32 473.84 312.25C471.53 305.76 465.05 304.11 457.46 304C451.08 304 446.02 307.08 440.96 312.25ZM364.99 350.992L365 351C365 351 368.999 348.778 370.295 347.686C372.467 355.131 378.959 357.99 388.18 357.99C395.11 357.99 400.06 354.8 404.46 350.73V357H419.2V325.1C419.2 309.81 409.96 302.5 394.78 302.5C392.188 302.5 387.85 302.978 384.44 304C380.613 305.147 377 306.5 371.5 309.5L377 319.5C384.44 314.5 389.32 314.5 393.5 314.5C400.65 314.5 404.46 317.73 404.46 325.1H392.8C377.95 325.1 369.5 330.27 369.5 341.49C369.5 341.821 369.505 342.146 369.516 342.466L361.5 337L357.164 340.035C351.644 343.089 349.651 343.5 342.408 343.5C331.716 343.5 323.94 334.48 323.832 322.168C323.832 308.56 332.904 300 345 300C350.616 300 353 300.5 362 307.5L371.5 299C370.8 298.417 370.061 297.746 369.271 297.03C366.676 294.676 363.542 291.832 359.5 290C354.138 287.569 347.639 287 343.5 287C322.548 287 307 300.352 307 322.168C307 343.876 323.628 357 343.5 357C352.834 357 357.724 355.21 364.99 350.992ZM404.46 333.68H394.78C387.96 333.68 384.44 334.67 384.44 339.84C384.44 344.46 387.52 347.1 392.91 347.1C397.53 347.1 401.38 344.79 404.46 341.49V333.68ZM655.07 314.647V305.147H640V357.147H655.07V329.537C657.38 321.617 662.33 318.647 668.93 318.647C670.676 318.647 672.327 318.647 674.688 318.826C680.233 331.048 687.64 347.96 689.23 354.467C690.868 361.171 687.038 364.101 682.84 364.647C680.722 364.922 678.745 364.387 676.82 363.865C676.482 363.774 676.145 363.683 675.81 363.597C669.78 362.047 666.34 374.147 679.34 376.147C692.34 378.147 702.05 371.987 711.34 348.647C716.514 335.647 722.12 320.917 727.84 305.077H711.89C707.05 319.597 703.31 330.267 698.25 340.387L695.5 332.027L684.83 305.077H684.231L684.84 304.147C682.562 303.894 675.464 304.029 671.437 304.105C670.215 304.129 669.276 304.147 668.84 304.147C668.374 304.147 667.914 304.141 667.462 304.136C663.932 304.094 660.833 304.058 658.34 306.647C658.271 306.719 658.201 306.79 658.132 306.861L658.117 306.877C656.56 308.484 655.07 310.022 655.07 314.647ZM536.07 310V284H521V357.5H536.07V351.23C540.58 355.63 544.1 358.49 552.57 358.49C563.79 358.49 578.34 350.57 578.34 330.77C578.34 311.63 566.6 303 553.84 303C547.02 303 541.24 304.72 536.07 310ZM536.84 330.77C536.645 327.939 537.34 325.5 537.84 324C538.34 322.5 543.55 316.36 548.5 316.36C555.1 316.36 562.84 320.32 562.84 330.77C562.84 341.77 555.72 345 549.34 345C544.17 345 539.84 341.5 538.34 338C538.34 338 537.035 333.601 536.84 330.77Z" fill="white"/>
<path fill-rule="evenodd" clip-rule="evenodd" d="M114.267 229C101.358 252.076 94 278.679 94 307V319C94 353.684 105.036 385.791 123.789 412H778V229H114.267ZM254 479C203.472 479 158.415 455.578 129.093 419H778V459C778 470.046 769.046 479 758 479H254ZM155.378 181H778V167C778 155.954 769.046 147 758 147H254C216.794 147 182.554 159.699 155.378 181ZM227.12 325.42V288.9H217V325.42C217 339.61 210.4 347.31 198.52 347.31C186.75 347.31 180.04 339.61 180.04 325.42V288.9H169.92V325.42C169.92 345.66 180.26 356.99 198.52 356.99C216.78 356.99 227.12 345.66 227.12 325.42ZM245.6 304.08V311.67C251.32 306.5 256.93 303.2 264.63 303.2C276.4 303.2 281.9 309.47 281.9 323.55V356H272V325.97C272 316.51 270.68 312.44 262.76 312.44C256.38 312.44 250.66 315.85 245.6 321.68V356H235.7V304.08H245.6ZM295.87 283.51C292.68 283.51 289.93 285.38 289.93 289.01C289.93 292.53 292.68 294.51 295.87 294.51C299.06 294.51 301.81 292.53 301.81 289.01C301.81 285.38 299.06 283.51 295.87 283.51ZM291.03 356H300.93V304.08H291.03V356ZM618.28 357.69V353.69C611.9 358.2 604.98 358.68 598.05 358.68C586.72 358.68 581 352.41 581 338.22V305H595.96V334.37C595.96 341.85 599.28 343.69 603.44 345.04C603.772 345.04 604.112 345.043 604.458 345.046C609.158 345.088 615.02 345.141 618.28 337.69V305H633.78V357.69H618.28ZM440.96 312.25L441.07 304.99H426V357.68H442.34V324.9C445.86 320.61 448.44 317.97 452.4 317.97C457.35 317.97 463.84 321.27 463.84 328.53V357.68H478.84C478.84 357.68 478.952 346.477 478.84 337.18C478.831 336.423 478.82 335.679 478.809 334.956C478.736 330.178 478.676 326.248 479.34 324.68C481.319 320.009 482.867 319.275 485.535 318.01L485.62 317.97C487.165 317.237 492.706 316.695 496.34 319.18C499.102 321.069 500.34 325.442 500.34 328.53V357.68H515.84L514.84 323.68C514.84 309.49 501.57 304.11 490.68 304.11C484.74 304.11 480.55 305.32 473.84 312.25C471.53 305.76 465.05 304.11 457.46 304C451.08 304 446.02 307.08 440.96 312.25ZM364.99 350.992L365 351C365 351 368.999 348.778 370.295 347.686C372.467 355.131 378.959 357.99 388.18 357.99C395.11 357.99 400.06 354.8 404.46 350.73V357H419.2V325.1C419.2 309.81 409.96 302.5 394.78 302.5C392.188 302.5 387.85 302.978 384.44 304C380.613 305.147 377 306.5 371.5 309.5L377 319.5C384.44 314.5 389.32 314.5 393.5 314.5C400.65 314.5 404.46 317.73 404.46 325.1H392.8C377.95 325.1 369.5 330.27 369.5 341.49C369.5 341.821 369.505 342.146 369.516 342.466L361.5 337L357.164 340.035C351.644 343.089 349.651 343.5 342.408 343.5C331.716 343.5 323.94 334.48 323.832 322.168C323.832 308.56 332.904 300 345 300C350.616 300 353 300.5 362 307.5L371.5 299C370.8 298.417 370.061 297.746 369.271 297.03C366.676 294.676 363.542 291.832 359.5 290C354.138 287.569 347.639 287 343.5 287C322.548 287 307 300.352 307 322.168C307 343.876 323.628 357 343.5 357C352.834 357 357.724 355.21 364.99 350.992ZM404.46 333.68H394.78C387.96 333.68 384.44 334.67 384.44 339.84C384.44 344.46 387.52 347.1 392.91 347.1C397.53 347.1 401.38 344.79 404.46 341.49V333.68ZM655.07 314.647V305.147H640V357.147H655.07V329.537C657.38 321.617 662.33 318.647 668.93 318.647C670.676 318.647 672.327 318.647 674.688 318.826C680.233 331.048 687.64 347.96 689.23 354.467C690.868 361.171 687.038 364.101 682.84 364.647C680.722 364.922 678.745 364.387 676.82 363.865C676.482 363.774 676.145 363.683 675.81 363.597C669.78 362.047 666.34 374.147 679.34 376.147C692.34 378.147 702.05 371.987 711.34 348.647C716.514 335.647 722.12 320.917 727.84 305.077H711.89C707.05 319.597 703.31 330.267 698.25 340.387L695.5 332.027L684.83 305.077H684.231L684.84 304.147C682.562 303.894 675.464 304.029 671.437 304.105C670.215 304.129 669.276 304.147 668.84 304.147C668.374 304.147 667.914 304.141 667.462 304.136C663.932 304.094 660.833 304.058 658.34 306.647C658.271 306.719 658.201 306.79 658.132 306.861L658.117 306.877C656.56 308.484 655.07 310.022 655.07 314.647ZM536.07 310V284H521V357.5H536.07V351.23C540.58 355.63 544.1 358.49 552.57 358.49C563.79 358.49 578.34 350.57 578.34 330.77C578.34 311.63 566.6 303 553.84 303C547.02 303 541.24 304.72 536.07 310ZM536.84 330.77C536.645 327.939 537.34 325.5 537.84 324C538.34 322.5 543.55 316.36 548.5 316.36C555.1 316.36 562.84 320.32 562.84 330.77C562.84 341.77 555.72 345 549.34 345C544.17 345 539.84 341.5 538.34 338C538.34 338 537.035 333.601 536.84 330.77Z" fill="white"/>
</svg>
